<?xml version="1.0" encoding="utf-8"?>
<!-- Generator: Adobe Illustrator 16.0.0, SVG Export Plug-In . SVG Version: 6.00 Build 0)  -->
<!DOCTYPE svg PUBLIC "-//W3C//DTD SVG 1.1//EN" "http://www.w3.org/Graphics/SVG/1.1/DTD/svg11.dtd">
<svg version="1.1" id="Layer_1" xmlns:sketch="http://www.bohemiancoding.com/sketch/ns"
	 xmlns="http://www.w3.org/2000/svg" xmlns:xlink="http://www.w3.org/1999/xlink" x="0px" y="0px" width="60px" height="60px"
	 viewBox="0 0 60 60" enable-background="new 0 0 60 60" xml:space="preserve">
<title>Github</title>
<g id="Page-1" sketch:type="MSPage">
	<g id="Github_1_" sketch:type="MSArtboardGroup">
		<g id="Github-" sketch:type="MSLayerGroup">
			<path id="Github" sketch:type="MSShapeGroup" display="none" fill="#333333" d="M0.337,30c0-16.568,13.23-30,29.551-30
				s29.551,13.432,29.551,30s-13.23,30-29.551,30S0.337,46.568,0.337,30z"/>
			<path id="octocat" sketch:type="MSShapeGroup" fill="#1F2224" d="M18.218,31.936c1.389,2.516,4.066,4.08,8.583,4.513
				c-0.645,0.488-1.419,1.415-1.526,2.485c-0.811,0.523-2.44,0.696-3.708,0.297c-1.775-0.559-2.456-4.066-5.114-3.566
				c-0.576,0.107-0.461,0.486,0.037,0.809c0.811,0.523,1.573,1.178,2.162,2.57c0.452,1.07,1.402,2.982,4.406,2.982
				c1.192,0,2.027-0.143,2.027-0.143s0.022,2.731,0.022,3.793c0,1.225-1.656,1.57-1.656,2.158c0,0.234,0.548,0.256,0.989,0.256
				c0.871,0,2.683-0.725,2.683-1.998c0-1.012,0.016-4.411,0.016-5.006c0-1.301,0.699-1.712,0.699-1.712s0.086,6.941-0.167,7.872
				c-0.297,1.094-0.834,0.938-0.834,1.427c0,0.726,2.181,0.178,2.904-1.415c0.559-1.241,0.314-8.051,0.314-8.051l0.596-0.012
				c0,0,0.033,3.117,0.014,4.542c-0.021,1.476-0.121,3.342,0.757,4.222c0.577,0.578,2.448,1.594,2.448,0.666
				c0-0.539-1.025-0.982-1.025-2.441v-6.715c0.818,0,0.695,2.208,0.695,2.208l0.06,4.103c0,0-0.181,1.494,1.62,2.12
				c0.635,0.222,1.995,0.281,2.059-0.091c0.064-0.373-1.637-0.928-1.652-2.085c-0.01-0.706,0.031-1.118,0.031-4.186
				s-0.412-4.202-1.852-5.105c4.441-0.456,7.189-1.552,8.529-4.487c0.104,0.003,0.545-1.371,0.488-1.371
				c0.301-1.108,0.463-2.419,0.494-3.972c-0.008-4.209-2.027-5.698-2.415-6.397c0.572-3.187-0.095-4.638-0.405-5.135
				c-1.145-0.406-3.98,1.044-5.531,2.067c-2.526-0.737-7.867-0.666-9.869,0.19c-3.695-2.64-5.65-2.235-5.65-2.235
				s-1.264,2.259-0.334,5.565c-1.216,1.545-2.122,2.64-2.122,5.539c0,1.633,0.192,3.096,0.627,4.372
				C17.564,30.568,18.201,31.936,18.218,31.936z"/>
			<path id="reflec" sketch:type="MSShapeGroup" display="none" fill-opacity="0.08" d="M59.438,30c0,16.568-13.23,30-29.551,30
				c-6.053,0-11.681-1.848-16.366-5.018l33.86-49.163C54.693,11.281,59.438,20.078,59.438,30z"/>
		</g>
	</g>
</g>
</svg>
