<?xml version="1.0" encoding="utf-8"?>
<!-- Generator: Adobe Illustrator 16.0.0, SVG Export Plug-In . SVG Version: 6.00 Build 0)  -->
<!DOCTYPE svg PUBLIC "-//W3C//DTD SVG 1.1//EN" "http://www.w3.org/Graphics/SVG/1.1/DTD/svg11.dtd">
<svg version="1.1" id="Layer_1" xmlns:sketch="http://www.bohemiancoding.com/sketch/ns"
	 xmlns="http://www.w3.org/2000/svg" xmlns:xlink="http://www.w3.org/1999/xlink" x="0px" y="0px" width="60px" height="60px"
	 viewBox="0 0 60 60" enable-background="new 0 0 60 60" xml:space="preserve">
<title>Twitter</title>
<g id="Page-1" sketch:type="MSPage">
	<g id="Twitter" sketch:type="MSArtboardGroup">
		<g sketch:type="MSLayerGroup">
			<path sketch:type="MSShapeGroup" display="none" fill="#4099FF" d="M0,30C0,13.432,13.451,0,30.043,0
				c16.592,0,30.043,13.432,30.043,30S46.636,60,30.043,60C13.451,60,0,46.568,0,30z"/>
			<path id="Path" sketch:type="MSShapeGroup" fill="#1F2224" d="M29.3,23.888l0.063,1.038l-1.049-0.127
				c-3.819-0.487-7.156-2.14-9.989-4.915l-1.385-1.377l-0.357,1.017c-0.755,2.267-0.272,4.661,1.301,6.271
				c0.839,0.89,0.65,1.017-0.797,0.487c-0.504-0.169-0.944-0.296-0.986-0.233c-0.147,0.148,0.357,2.076,0.755,2.839
				c0.546,1.059,1.658,2.097,2.875,2.712l1.028,0.486l-1.217,0.021c-1.175,0-1.217,0.021-1.091,0.467
				c0.42,1.377,2.078,2.838,3.924,3.475l1.301,0.444l-1.133,0.678c-1.679,0.975-3.651,1.525-5.624,1.567
				c-0.944,0.021-1.721,0.106-1.721,0.17c0,0.212,2.56,1.398,4.05,1.864c4.47,1.377,9.779,0.784,13.766-1.567
				c2.833-1.674,5.666-5,6.988-8.221c0.713-1.715,1.427-4.851,1.427-6.355c0-0.975,0.063-1.102,1.238-2.267
				c0.692-0.678,1.343-1.419,1.469-1.631c0.21-0.402,0.188-0.402-0.882-0.042c-1.783,0.636-2.035,0.551-1.154-0.402
				c0.651-0.678,1.428-1.907,1.428-2.267c0-0.063-0.314,0.042-0.672,0.233c-0.377,0.212-1.217,0.529-1.846,0.72l-1.134,0.36
				l-1.028-0.699c-0.566-0.381-1.363-0.805-1.783-0.932c-1.07-0.297-2.707-0.254-3.673,0.084
				C30.769,18.74,29.111,21.197,29.3,23.888z"/>
			<path id="reflec" sketch:type="MSShapeGroup" display="none" fill-opacity="0.08" d="M60.087,30c0,16.568-13.451,30-30.043,30
				c-6.154,0-11.875-1.848-16.639-5.018L47.829,5.819C55.263,11.281,60.087,20.078,60.087,30z"/>
		</g>
	</g>
</g>
</svg>
